<svg width="26" height="15" viewBox="0 0 26 15" fill="none" xmlns="http://www.w3.org/2000/svg">
<path d="M1.495 6.49512C0.94271 6.49512 0.494995 6.94283 0.494995 7.49512C0.494995 8.0474 0.94271 8.49512 1.495 8.49512L1.495 6.49512ZM25.2021 8.20222C25.5926 7.8117 25.5926 7.17853 25.2021 6.78801L18.8381 0.424049C18.4476 0.033525 17.8145 0.033525 17.4239 0.424049C17.0334 0.814574 17.0334 1.44774 17.4239 1.83826L23.0808 7.49512L17.4239 13.152C17.0334 13.5425 17.0334 14.1757 17.4239 14.5662C17.8145 14.9567 18.4476 14.9567 18.8381 14.5662L25.2021 8.20222ZM1.495 7.49512L1.495 8.49512L24.495 8.49512V7.49512V6.49512L1.495 6.49512L1.495 7.49512Z" fill="white"/>
</svg>
