<svg width="18" height="18" viewBox="0 0 18 18" fill="none" xmlns="http://www.w3.org/2000/svg">
<g clip-path="url(#clip0_39_48)">
<path d="M18 8.43518C17.8915 6.6802 17.2719 4.99532 16.2174 3.58825C15.1629 2.18119 13.7197 1.11345 12.0658 0.516681C10.4118 -0.0800926 8.61937 -0.179815 6.90941 0.229806C5.19946 0.639428 3.64675 1.54049 2.44271 2.8219C1.23866 4.10331 0.435923 5.70906 0.133448 7.44118C-0.169026 9.1733 0.0419894 10.9561 0.740479 12.5697C1.43897 14.1834 2.5944 15.5573 4.06432 16.5222C5.53425 17.4872 7.25441 18.0008 9.01274 17.9999H14.25C15.2443 17.9989 16.1975 17.6035 16.9005 16.9005C17.6036 16.1974 17.999 15.2442 18 14.2499V8.43518ZM16.5 14.2499C16.5 14.8467 16.2629 15.419 15.841 15.8409C15.419 16.2629 14.8467 16.4999 14.25 16.4999H9.01274C7.95444 16.4995 6.90812 16.2759 5.94202 15.8439C4.97591 15.4119 4.1117 14.7811 3.40574 13.9927C2.69637 13.2046 2.16369 12.274 1.84341 11.2633C1.52314 10.2525 1.42267 9.18495 1.54874 8.13218C1.74782 6.47164 2.49388 4.92457 3.66932 3.73488C4.84476 2.54518 6.38272 1.78052 8.04074 1.56143C8.36417 1.5209 8.68979 1.50036 9.01574 1.49993C10.7636 1.49517 12.4573 2.10586 13.8 3.22493C14.5841 3.87664 15.2278 4.6808 15.6919 5.58866C16.156 6.49651 16.4309 7.48916 16.5 8.50643V14.2499Z" fill="#1F2937" fill-opacity="0.5"/>
<path d="M6 6.75H9C9.19891 6.75 9.38968 6.67098 9.53033 6.53033C9.67098 6.38968 9.75 6.19891 9.75 6C9.75 5.80109 9.67098 5.61032 9.53033 5.46967C9.38968 5.32902 9.19891 5.25 9 5.25H6C5.80109 5.25 5.61032 5.32902 5.46967 5.46967C5.32902 5.61032 5.25 5.80109 5.25 6C5.25 6.19891 5.32902 6.38968 5.46967 6.53033C5.61032 6.67098 5.80109 6.75 6 6.75Z" fill="#1F2937" fill-opacity="0.5"/>
<path d="M12 8.25H6C5.80109 8.25 5.61032 8.32902 5.46967 8.46967C5.32902 8.61032 5.25 8.80109 5.25 9C5.25 9.19891 5.32902 9.38968 5.46967 9.53033C5.61032 9.67098 5.80109 9.75 6 9.75H12C12.1989 9.75 12.3897 9.67098 12.5303 9.53033C12.671 9.38968 12.75 9.19891 12.75 9C12.75 8.80109 12.671 8.61032 12.5303 8.46967C12.3897 8.32902 12.1989 8.25 12 8.25Z" fill="#1F2937" fill-opacity="0.5"/>
<path d="M12 11.25H6C5.80109 11.25 5.61032 11.329 5.46967 11.4697C5.32902 11.6103 5.25 11.8011 5.25 12C5.25 12.1989 5.32902 12.3897 5.46967 12.5303C5.61032 12.671 5.80109 12.75 6 12.75H12C12.1989 12.75 12.3897 12.671 12.5303 12.5303C12.671 12.3897 12.75 12.1989 12.75 12C12.75 11.8011 12.671 11.6103 12.5303 11.4697C12.3897 11.329 12.1989 11.25 12 11.25Z" fill="#1F2937" fill-opacity="0.5"/>
</g>
<defs>
<clipPath id="clip0_39_48">
<rect width="18" height="18" fill="white"/>
</clipPath>
</defs>
</svg>
