<svg width="18" height="18" viewBox="0 0 18 18" fill="none" xmlns="http://www.w3.org/2000/svg">
<g clip-path="url(#clip0_39_55)">
<path d="M17.4533 7.06421C16.29 5.16971 13.644 1.99121 9.00004 1.99121C4.35604 1.99121 1.71004 5.16971 0.546789 7.06421C0.187184 7.64584 -0.0032959 8.31614 -0.0032959 8.99996C-0.0032959 9.68378 0.187184 10.3541 0.546789 10.9357C1.71004 12.8302 4.35604 16.0087 9.00004 16.0087C13.644 16.0087 16.29 12.8302 17.4533 10.9357C17.8129 10.3541 18.0034 9.68378 18.0034 8.99996C18.0034 8.31614 17.8129 7.64584 17.4533 7.06421ZM16.1745 10.1505C15.1755 11.775 12.9143 14.5087 9.00004 14.5087C5.08579 14.5087 2.82454 11.775 1.82554 10.1505C1.61189 9.80474 1.49873 9.40637 1.49873 8.99996C1.49873 8.59355 1.61189 8.19518 1.82554 7.84946C2.82454 6.22496 5.08579 3.49121 9.00004 3.49121C12.9143 3.49121 15.1755 6.22196 16.1745 7.84946C16.3882 8.19518 16.5014 8.59355 16.5014 8.99996C16.5014 9.40637 16.3882 9.80474 16.1745 10.1505Z" fill="#1F2937" fill-opacity="0.5"/>
<path d="M9 5.25C8.25832 5.25 7.5333 5.46993 6.91661 5.88199C6.29993 6.29404 5.81928 6.87971 5.53545 7.56494C5.25162 8.25016 5.17736 9.00416 5.32206 9.73159C5.46675 10.459 5.8239 11.1272 6.34835 11.6517C6.8728 12.1761 7.54098 12.5333 8.26841 12.6779C8.99584 12.8226 9.74984 12.7484 10.4351 12.4645C11.1203 12.1807 11.706 11.7001 12.118 11.0834C12.5301 10.4667 12.75 9.74168 12.75 9C12.7488 8.0058 12.3533 7.05267 11.6503 6.34966C10.9473 5.64666 9.9942 5.25119 9 5.25ZM9 11.25C8.55499 11.25 8.11998 11.118 7.74997 10.8708C7.37996 10.6236 7.09157 10.2722 6.92127 9.86104C6.75098 9.4499 6.70642 8.9975 6.79323 8.56105C6.88005 8.12459 7.09434 7.72368 7.40901 7.40901C7.72368 7.09434 8.12459 6.88005 8.56105 6.79323C8.99751 6.70642 9.44991 6.75097 9.86104 6.92127C10.2722 7.09157 10.6236 7.37996 10.8708 7.74997C11.118 8.11998 11.25 8.55499 11.25 9C11.25 9.59674 11.0129 10.169 10.591 10.591C10.169 11.0129 9.59674 11.25 9 11.25Z" fill="#1F2937" fill-opacity="0.5"/>
</g>
<defs>
<clipPath id="clip0_39_55">
<rect width="18" height="18" fill="white"/>
</clipPath>
</defs>
</svg>
