<svg width="44" height="44" viewBox="0 0 44 44" fill="none" xmlns="http://www.w3.org/2000/svg">
<g filter="url(#filter0_d_254_1298)">
<rect x="2" y="1" width="40" height="40" rx="12" fill="#F6F7F8"/>
</g>
<g clip-path="url(#clip0_254_1298)">
<path d="M22 13C19.8789 13.0023 17.8454 13.8459 16.3456 15.3457C14.8458 16.8455 14.0022 18.879 14 21C13.9166 27.3827 21.4393 31.286 26.6 27.5447C26.7081 27.4694 26.8003 27.3735 26.8713 27.2624C26.9423 27.1514 26.9906 27.0274 27.0135 26.8977C27.0364 26.7679 27.0334 26.6349 27.0047 26.5063C26.9761 26.3777 26.9222 26.256 26.8464 26.1482C26.7705 26.0405 26.6741 25.9488 26.5627 25.8784C26.4513 25.808 26.3271 25.7604 26.1972 25.7382C26.0673 25.716 25.9343 25.7197 25.8058 25.7491C25.6774 25.7784 25.556 25.8329 25.4486 25.9093C21.6133 28.7213 15.9086 25.764 16 21C16.3146 13.0467 27.686 13.048 28 21V22C28 22.2652 27.8946 22.5196 27.7071 22.7071C27.5195 22.8946 27.2652 23 27 23C26.7347 23 26.4804 22.8946 26.2928 22.7071C26.1053 22.5196 26 22.2652 26 22V21C25.832 15.714 18.1673 15.7147 18 21C18.0066 21.7752 18.2378 22.5319 18.6654 23.1785C19.0931 23.8251 19.699 24.3339 20.4098 24.6434C21.1206 24.9529 21.9058 25.0497 22.6705 24.9223C23.4352 24.7949 24.1466 24.4486 24.7186 23.9253C25.1157 24.3904 25.6454 24.723 26.2368 24.8785C26.8282 25.0341 27.453 25.0052 28.0276 24.7958C28.6021 24.5863 29.0989 24.2063 29.4514 23.7066C29.8039 23.207 29.9953 22.6115 30 22V21C29.9977 18.879 29.1541 16.8455 27.6543 15.3457C26.1545 13.8459 24.121 13.0023 22 13ZM22 23C21.4695 23 20.9608 22.7893 20.5857 22.4142C20.2107 22.0391 20 21.5304 20 21C20 20.4696 20.2107 19.9609 20.5857 19.5858C20.9608 19.2107 21.4695 19 22 19C22.5304 19 23.0391 19.2107 23.4142 19.5858C23.7892 19.9609 24 20.4696 24 21C24 21.5304 23.7892 22.0391 23.4142 22.4142C23.0391 22.7893 22.5304 23 22 23Z" fill="#1F2937"/>
</g>
<defs>
<filter id="filter0_d_254_1298" x="0" y="0" width="44" height="44" filterUnits="userSpaceOnUse" color-interpolation-filters="sRGB">
<feFlood flood-opacity="0" result="BackgroundImageFix"/>
<feColorMatrix in="SourceAlpha" type="matrix" values="0 0 0 0 0 0 0 0 0 0 0 0 0 0 0 0 0 0 127 0" result="hardAlpha"/>
<feOffset dy="1"/>
<feGaussianBlur stdDeviation="1"/>
<feComposite in2="hardAlpha" operator="out"/>
<feColorMatrix type="matrix" values="0 0 0 0 0 0 0 0 0 0 0 0 0 0 0 0 0 0 0.05 0"/>
<feBlend mode="normal" in2="BackgroundImageFix" result="effect1_dropShadow_254_1298"/>
<feBlend mode="normal" in="SourceGraphic" in2="effect1_dropShadow_254_1298" result="shape"/>
</filter>
<clipPath id="clip0_254_1298">
<rect width="16" height="16" fill="white" transform="translate(14 13)"/>
</clipPath>
</defs>
</svg>
